<svg width="200" height="200" viewBox="0 0 200 200" fill="none" xmlns="http://www.w3.org/2000/svg">
<path d="M161.3 94.2667C162.359 85.5323 161.539 76.6726 158.895 68.2809C156.251 59.8893 151.844 52.1595 145.97 45.6094C140.096 39.0593 132.89 33.8401 124.834 30.3014C116.779 26.7627 108.061 24.9863 99.263 25.0911C90.4654 25.1959 81.7917 27.1796 73.823 30.9091C65.8543 34.6387 58.7746 40.0281 53.0581 46.7163C47.3417 53.4045 43.1205 61.2371 40.6773 69.6893C38.2341 78.1416 37.6253 87.0184 38.8917 95.725C47.9456 87.2861 59.8159 82.5184 72.1917 82.35C84.8584 82.575 97.15 86.6834 107.4 94.1334C116.095 100.686 126.903 103.796 137.75 102.867C146.169 101.922 154.235 98.9546 161.258 94.2167L161.3 94.2667ZM51.4667 117.642C51.4667 115.575 53.45 113.225 55.8834 113.225C58.3 113.225 60.2834 115.575 60.2834 117.642V139.608C60.2834 141.692 58.3 144.117 55.875 144.117C53.45 144.117 51.4584 141.692 51.4584 139.617L51.4667 117.642ZM91.1667 113.225C91.1667 111.2 93.15 108.825 95.5834 108.825C98 108.825 99.9834 111.2 99.9834 113.233V135.292C99.9834 137.325 98 139.708 95.5834 139.708C93.15 139.708 91.1667 137.317 91.1667 135.292V113.225ZM104.4 122.058C104.4 120.158 106.392 117.642 108.808 117.642C111.225 117.642 113.225 120.158 113.225 122.058V126.467C113.225 128.358 111.233 130.883 108.808 130.883C106.392 130.883 104.4 128.358 104.4 126.467V122.058ZM144.1 126.467C144.1 124.217 146.092 122.058 148.508 122.058C150.925 122.058 152.933 124.225 152.933 126.467V139.708C152.9 140.869 152.422 141.972 151.598 142.791C150.775 143.61 149.669 144.081 148.508 144.108C147.351 144.075 146.25 143.601 145.431 142.783C144.612 141.965 144.136 140.865 144.1 139.708V126.467ZM64.7 113.233C64.7 111.25 66.6834 108.817 69.1084 108.817C71.5334 108.817 73.525 111.25 73.525 113.233V144.333C73.525 146.325 71.5334 148.525 69.1084 148.525C66.6917 148.525 64.6917 146.325 64.6917 144.333L64.7 113.233ZM117.642 126.467C117.642 124.267 119.617 122.058 122.042 122.058C124.467 122.058 126.458 124.267 126.458 126.467V161.767C126.413 162.922 125.932 164.017 125.113 164.833C124.294 165.649 123.197 166.126 122.042 166.167C120.885 166.125 119.787 165.648 118.967 164.83C118.148 164.013 117.668 162.915 117.625 161.758L117.642 126.467ZM130.867 130.892C130.867 128.867 132.85 126.475 135.283 126.475C137.708 126.475 139.683 128.867 139.683 130.892V157.35C139.683 159.375 137.708 161.767 135.283 161.767C132.858 161.767 130.867 159.375 130.867 157.35V130.892ZM77.9167 108.833C77.9167 106.767 79.9084 104.417 82.3334 104.417C84.7584 104.417 86.7417 106.767 86.7417 108.833V170.592C86.7417 172.667 84.7667 175 82.3334 175C79.9084 175 77.9167 172.667 77.9167 170.592V108.833Z" fill="black"/>
<path d="M76.4334 99.125C70.6802 98.7961 64.9193 99.6179 59.4876 101.542C54.0559 103.467 49.0627 106.456 44.8 110.333C44.3017 110.746 43.7111 111.032 43.0785 111.167C42.4458 111.303 41.7899 111.283 41.1664 111.111C40.5428 110.938 39.9703 110.617 39.4973 110.176C39.0244 109.734 38.6651 109.185 38.45 108.575C38.2042 107.842 38.1856 107.052 38.3968 106.308C38.608 105.565 39.039 104.903 39.6334 104.408C47.4835 97.312 57.3408 92.8243 67.8475 91.5632C78.3543 90.3021 88.9936 92.3296 98.3 97.3666C101.133 98.9666 103.8 100.819 106.3 102.925L108.5 104.55C115.692 109.358 124.117 111.991 132.767 112.133C142.733 112.225 151.417 106.575 155.392 103.675C155.91 103.285 156.516 103.027 157.157 102.925C157.797 102.822 158.453 102.877 159.068 103.086C159.682 103.294 160.236 103.65 160.682 104.122C161.128 104.593 161.451 105.166 161.625 105.792C161.825 106.543 161.792 107.338 161.53 108.07C161.268 108.802 160.79 109.438 160.158 109.892C156.008 112.975 145.467 120.042 132.675 119.95C122.456 119.773 112.503 116.664 104 110.992L101.042 108.792L99.725 107.733C93.0373 102.52 84.9029 99.499 76.4334 99.0833V99.125Z" fill="black"/>
</svg>
